<?xml version="1.0" standalone="no"?>
<!DOCTYPE svg PUBLIC "-//W3C//DTD SVG 20010904//EN"
 "http://www.w3.org/TR/2001/REC-SVG-20010904/DTD/svg10.dtd">
<svg version="1.0" xmlns="http://www.w3.org/2000/svg"
 width="836.000000pt" height="696.000000pt" viewBox="0 0 836.000000 696.000000"
 preserveAspectRatio="xMidYMid meet">

<g transform="translate(0.000000,696.000000) scale(0.100000,-0.100000)"
fill="#000000" stroke="none">
<path d="M7195 6739 c-253 -23 -396 -89 -573 -263 l-82 -81 -168 -1 -167 -1
-100 -38 c-106 -39 -209 -97 -263 -149 -61 -56 -182 -244 -182 -281 0 -8 -11
-43 -25 -78 -21 -52 -26 -78 -26 -159 l0 -98 -24 16 c-14 9 -25 20 -25 24 0
16 -152 110 -282 173 -122 60 -307 134 -468 186 -154 50 -514 68 -734 37 -131
-19 -197 -46 -556 -225 -269 -134 -322 -165 -475 -273 -52 -38 -97 -68 -100
-68 -7 0 -164 -119 -225 -170 -30 -26 -76 -60 -101 -77 -25 -17 -62 -53 -84
-80 -21 -26 -59 -68 -84 -93 -25 -25 -64 -72 -86 -104 -46 -67 -90 -125 -135
-178 -28 -33 -68 -93 -108 -163 -6 -11 -41 -83 -77 -160 -36 -77 -79 -167 -95
-200 -55 -116 -55 -116 -79 -295 -15 -109 -21 -644 -10 -860 8 -166 24 -279
50 -365 31 -104 110 -336 125 -367 10 -21 14 -41 10 -45 -3 -4 -44 1 -89 10
-161 34 -349 21 -446 -30 -15 -7 -34 -13 -43 -13 -9 0 -40 -14 -68 -30 -28
-16 -54 -30 -58 -30 -11 0 -83 -51 -141 -100 -211 -176 -332 -323 -367 -447
-16 -56 -18 -59 -76 -86 -86 -42 -210 -158 -275 -257 -148 -226 -148 -227
-148 -510 0 -215 6 -255 63 -393 25 -61 125 -131 192 -135 19 -2 51 -7 70 -12
19 -5 96 -10 170 -11 130 -2 138 -1 215 30 43 18 85 37 91 42 7 5 63 12 126
14 122 4 147 9 223 47 28 14 61 29 75 33 14 4 32 13 40 20 8 7 48 30 89 51 40
22 76 44 78 51 3 7 30 31 61 55 31 24 64 51 72 61 15 18 18 18 90 -7 61 -22
91 -26 180 -26 59 0 120 4 136 9 16 5 63 14 104 21 103 16 147 30 174 55 12
11 36 30 53 40 61 39 249 219 280 269 18 28 33 63 33 79 0 15 5 27 10 27 6 0
63 -27 128 -60 64 -33 146 -72 182 -86 100 -41 315 -112 378 -125 31 -6 66
-16 77 -22 31 -16 349 -32 650 -32 l280 1 125 37 c69 20 141 44 160 52 19 8
67 23 107 35 39 11 114 41 165 67 51 25 142 65 201 89 108 44 225 112 261 152
11 12 24 22 30 22 17 0 73 48 144 120 271 277 365 382 432 480 13 19 47 67 76
105 28 39 66 97 83 130 18 33 48 85 67 115 19 30 42 80 50 110 9 30 22 75 29
100 8 25 17 68 20 95 4 28 19 97 34 155 16 58 36 146 45 195 10 50 27 133 38
185 16 72 23 152 29 330 8 258 1 324 -56 489 -14 41 -25 82 -25 91 0 10 -9 45
-20 80 -11 34 -29 112 -41 173 -17 91 -29 126 -63 187 -53 93 -71 141 -55 151
6 3 32 9 58 12 46 6 238 63 256 77 6 4 27 13 48 20 42 13 267 127 325 164 54
35 156 138 197 199 20 30 38 71 42 93 9 57 17 70 81 112 169 115 259 241 272
382 6 55 12 77 25 85 147 86 229 156 258 218 36 78 67 214 66 287 0 36 -1 117
0 180 0 63 -4 132 -9 153 -16 73 -73 113 -200 141 -41 9 -97 23 -125 31 -99
29 -432 48 -590 34z m520 -248 c83 -17 158 -34 168 -37 15 -5 17 -20 17 -142
-1 -269 -46 -363 -210 -439 -41 -19 -88 -42 -105 -51 -109 -59 -161 -82 -212
-92 -142 -28 -173 -46 -173 -99 0 -35 40 -71 79 -71 33 0 184 36 235 56 21 8
40 13 42 12 8 -9 -41 -127 -64 -152 -55 -58 -182 -136 -223 -136 -11 0 -45
-10 -77 -21 -58 -22 -130 -36 -235 -45 -85 -8 -111 -55 -63 -111 22 -26 29
-28 93 -26 37 1 101 4 141 8 39 4 72 3 72 -2 0 -48 -215 -204 -360 -261 -47
-18 -108 -44 -136 -57 -70 -33 -124 -44 -250 -50 -59 -3 -112 -9 -118 -15 -8
-6 -39 28 -101 112 -50 67 -126 166 -170 220 -44 55 -90 113 -102 129 -12 17
-63 73 -112 125 -50 52 -91 100 -91 107 0 7 11 30 25 52 17 29 24 55 25 92 1
165 106 419 198 476 69 44 156 84 212 97 55 13 225 18 236 7 4 -3 -3 -22 -15
-42 -11 -20 -21 -49 -21 -64 0 -37 34 -71 71 -71 38 0 69 30 108 106 16 33 45
80 63 106 45 65 234 224 318 269 14 7 77 21 140 31 176 27 400 19 595 -21z
m-2536 -811 c34 -11 74 -28 89 -38 15 -10 38 -23 52 -29 14 -6 44 -27 68 -48
37 -32 42 -41 42 -80 0 -24 -9 -63 -19 -88 -31 -72 -73 -95 -256 -142 -32 -8
-71 -15 -85 -15 -51 0 -131 31 -171 67 -37 34 -39 38 -39 95 0 33 5 69 11 81
35 67 145 169 219 204 14 6 26 12 26 12 1 1 29 -8 63 -19z m-734 -420 c71 -12
190 -46 260 -75 33 -13 78 -29 100 -34 79 -20 228 -91 317 -151 96 -65 120
-89 178 -178 20 -31 44 -63 53 -71 9 -7 17 -18 17 -23 0 -10 30 -71 90 -188
16 -30 29 -62 29 -71 1 -8 12 -31 27 -50 37 -50 102 -181 141 -284 39 -104 61
-178 105 -360 30 -127 31 -136 31 -375 1 -274 -17 -606 -39 -720 -30 -155
-138 -314 -369 -546 -105 -105 -239 -214 -264 -214 -5 0 -14 -7 -21 -15 -22
-26 -170 -105 -285 -151 -60 -24 -113 -44 -117 -44 -5 0 -38 -13 -73 -30 -35
-16 -69 -30 -74 -30 -6 0 -30 -8 -53 -19 -86 -38 -114 -41 -320 -42 -156 0
-215 4 -244 15 -22 8 -52 17 -69 21 -88 18 -206 63 -260 100 -33 22 -89 56
-125 75 -141 74 -197 115 -357 267 -132 125 -192 196 -213 253 -12 34 -35 72
-90 155 -15 22 -44 77 -65 122 -21 46 -46 90 -56 99 -11 10 -19 23 -19 31 0 8
-11 38 -24 66 -24 54 -68 199 -64 214 1 4 -1 87 -5 183 -4 96 -9 261 -12 365
l-6 190 46 90 c26 50 64 122 85 160 22 39 47 93 56 120 9 28 30 77 47 109 16
33 36 78 44 100 7 23 23 55 34 71 10 17 45 71 77 122 56 90 192 240 314 344
46 40 197 139 212 139 2 0 31 16 64 35 81 48 213 102 297 122 39 8 99 25 135
38 36 12 89 30 119 40 82 28 256 40 346 25z m1882 -901 c71 -26 135 -124 147
-222 7 -55 6 -59 -25 -95 -54 -62 -201 -119 -285 -109 -80 9 -236 100 -261
152 -21 45 -13 61 89 173 105 114 122 124 225 117 45 -3 94 -10 110 -16z
m-3887 -40 c113 -34 166 -82 151 -137 -18 -62 -73 -162 -99 -180 -34 -24 -59
-31 -157 -42 -44 -5 -95 -13 -113 -16 -44 -8 -108 13 -133 44 -20 26 -27 102
-9 102 5 0 16 -10 25 -23 19 -30 85 -67 119 -67 126 0 226 116 166 193 -50 64
-176 97 -228 61 -28 -20 -39 -12 -25 19 6 12 14 30 17 39 8 28 200 32 286 7z
m-175 -159 c20 -7 26 -16 23 -33 -2 -18 -10 -23 -44 -25 -45 -3 -60 13 -49 49
7 21 30 24 70 9z m3996 -1565 c73 -26 106 -44 138 -76 36 -36 38 -56 10 -128
-37 -98 -47 -111 -111 -141 -130 -62 -324 -66 -438 -9 -35 18 -66 41 -72 54
-16 36 -2 86 42 149 22 31 40 60 40 65 0 12 40 45 90 74 41 24 55 27 151 27
70 0 122 -5 150 -15z m-3621 -229 c46 -8 68 -18 75 -32 6 -10 27 -48 48 -83
l38 -63 -16 -49 c-19 -57 -92 -122 -159 -140 -43 -12 -144 -14 -211 -3 -47 8
-111 64 -120 105 -14 64 119 247 193 267 50 13 75 13 152 -2z m-740 -252 c41
-9 111 -18 154 -20 85 -4 90 -7 105 -62 6 -19 20 -48 33 -65 13 -18 43 -70 67
-117 38 -74 74 -133 91 -150 3 -3 23 -27 45 -55 22 -27 68 -81 103 -120 35
-38 77 -84 93 -102 16 -18 54 -50 86 -72 32 -22 74 -53 92 -69 l35 -30 -58
-87 c-73 -110 -180 -223 -243 -258 -69 -37 -122 -46 -264 -47 -150 -1 -222 14
-227 47 -5 34 -51 66 -84 59 -18 -3 -69 -45 -136 -110 -133 -130 -165 -155
-271 -215 -59 -33 -108 -52 -154 -61 -90 -16 -98 -9 -70 62 43 108 46 148 13
183 -44 47 -109 21 -126 -50 -16 -70 -91 -212 -125 -238 -61 -46 -137 -60
-284 -54 -71 3 -142 9 -156 15 -28 11 -51 61 -65 142 -14 78 -11 310 4 365 42
147 149 292 280 378 79 52 126 63 322 73 136 6 182 18 194 49 11 31 6 59 -16
82 -20 22 -28 23 -160 23 -76 0 -138 3 -138 8 0 41 204 253 315 327 122 82
262 151 330 163 33 7 69 13 80 16 37 7 59 5 135 -10z m2008 -675 c53 -7 100
-17 105 -23 10 -15 -2 -120 -19 -169 -18 -49 -81 -130 -144 -183 -55 -46 -128
-70 -187 -61 -45 8 -114 41 -147 72 -24 22 -26 31 -26 101 0 60 4 84 21 110
33 55 113 110 209 146 55 20 68 21 188 7z"/>
<path d="M7576 6211 c-89 -83 -122 -98 -231 -103 -169 -9 -265 -53 -265 -123
0 -57 56 -81 127 -54 15 6 77 15 136 20 138 12 199 35 291 110 109 87 128 128
85 183 -34 44 -69 36 -143 -33z"/>
<path d="M6497 5959 c-33 -19 -47 -64 -47 -151 0 -74 4 -91 33 -153 40 -83 71
-122 135 -169 120 -87 346 -128 389 -70 16 21 17 58 3 84 -11 20 -66 40 -113
40 -43 0 -147 38 -193 72 -23 16 -54 52 -69 80 -23 42 -27 62 -29 136 -1 92
-8 112 -43 131 -26 13 -42 14 -66 0z"/>
<path d="M6122 5774 c-7 -3 -23 -25 -35 -47 -20 -39 -22 -55 -22 -227 0 -214
3 -227 82 -347 75 -115 160 -192 249 -227 70 -28 208 -56 272 -56 54 0 67 4
87 25 28 27 30 42 14 79 -14 31 -45 43 -129 51 -142 14 -233 50 -297 117 -46
48 -109 165 -122 226 -16 75 -14 227 4 297 15 56 15 61 -3 85 -19 24 -69 37
-100 24z"/>
<path d="M5081 5601 c-49 -33 -71 -74 -71 -132 0 -103 175 -186 284 -134 35
17 66 69 66 110 0 32 -20 77 -42 93 -9 7 -24 19 -32 27 -25 25 -108 65 -135
65 -14 0 -46 -13 -70 -29z m137 -107 c17 -11 22 -23 20 -42 -3 -24 -7 -27 -41
-26 -21 1 -46 9 -57 19 -20 18 -27 55 -13 69 11 10 62 -1 91 -20z"/>
<path d="M4385 4344 c-44 -7 -114 -18 -155 -23 -142 -19 -192 -30 -320 -71
-112 -35 -138 -48 -215 -104 -94 -70 -202 -188 -286 -313 -29 -43 -66 -96 -84
-118 -18 -22 -39 -53 -47 -70 -22 -41 -73 -225 -88 -310 -11 -68 -11 -72 19
-151 17 -44 44 -94 59 -111 25 -29 210 -130 272 -148 14 -4 53 -20 87 -36 34
-16 75 -31 90 -35 28 -6 76 -20 235 -69 87 -26 89 -27 225 -16 151 12 291 44
372 85 196 100 380 275 466 446 10 19 30 46 45 61 15 15 35 45 45 66 10 21 29
54 42 74 14 21 26 58 30 90 3 30 11 65 18 79 18 36 36 144 38 228 l2 74 -55
49 c-81 72 -290 208 -411 267 -81 40 -123 54 -180 62 -89 11 -102 11 -204 -6z
m343 -232 c106 -53 156 -84 285 -178 37 -27 42 -35 41 -70 -1 -75 -99 -357
-135 -390 -11 -10 -36 -48 -56 -86 -59 -113 -167 -233 -275 -306 -101 -68
-143 -88 -234 -110 -146 -37 -222 -37 -359 -2 -203 52 -356 101 -450 146 -109
52 -148 78 -169 114 -17 29 -18 40 -9 99 17 106 52 206 94 268 21 32 63 94 92
138 105 156 260 300 360 335 56 19 79 24 322 69 88 17 171 32 185 35 14 2 62
3 108 1 78 -4 91 -8 200 -63z"/>
<path d="M4037 3846 c-37 -8 -68 -22 -87 -41 -55 -53 -118 -256 -106 -340 9
-56 60 -157 112 -219 51 -61 93 -76 233 -83 l116 -6 77 37 c94 44 116 72 153
186 33 102 31 195 -3 273 -25 56 -122 155 -179 183 -48 23 -231 29 -316 10z
m253 -241 c27 -26 30 -35 30 -90 0 -51 -4 -65 -22 -82 -47 -43 -64 -46 -155
-27 -53 10 -90 116 -62 177 28 62 154 75 209 22z"/>
<path d="M6190 4272 c-50 -25 -102 -115 -94 -162 9 -50 21 -68 55 -85 53 -28
119 -30 170 -6 80 38 103 68 92 123 -22 115 -130 177 -223 130z m110 -96 c21
-26 8 -59 -27 -69 -42 -12 -63 -3 -63 27 0 43 64 73 90 42z"/>
<path d="M6007 2528 c-52 -28 -104 -83 -112 -118 -8 -35 14 -87 49 -120 22
-20 36 -24 76 -22 85 4 127 28 161 94 37 72 16 129 -62 168 -47 25 -64 24
-112 -2z m71 -121 c4 -34 -13 -57 -42 -57 -28 0 -46 18 -46 47 0 26 26 44 60
40 19 -1 26 -8 28 -30z"/>
<path d="M2510 2311 c-50 -27 -66 -50 -73 -103 -8 -60 21 -107 79 -127 37 -13
43 -12 89 11 89 44 120 138 69 205 -23 30 -30 33 -77 33 -31 -1 -66 -9 -87
-19z m90 -70 c16 -31 12 -51 -15 -63 -32 -14 -55 4 -55 43 0 21 6 29 23 32 12
2 25 5 29 6 4 0 12 -8 18 -18z"/>
<path d="M1849 1886 c-34 -16 -49 -52 -37 -86 7 -20 30 -39 91 -71 120 -64
193 -140 242 -254 37 -85 39 -96 39 -190 0 -55 -4 -119 -8 -143 -8 -37 -6 -46
14 -67 89 -94 183 81 150 277 -37 217 -161 404 -326 490 -91 47 -135 59 -165
44z"/>
<path d="M1474 1678 c-21 -10 -44 -47 -44 -72 0 -6 14 -31 30 -53 38 -52 65
-129 80 -229 14 -92 7 -150 -22 -182 -47 -49 -11 -142 55 -142 41 0 92 56 112
122 49 168 -31 483 -140 550 -34 20 -41 21 -71 6z"/>
<path d="M888 1173 c-25 -30 -29 -53 -13 -83 19 -36 20 -140 1 -183 -7 -18
-32 -54 -55 -80 -42 -49 -50 -81 -31 -117 31 -57 91 -42 163 41 61 70 89 143
91 234 2 136 -33 205 -103 205 -24 0 -44 -7 -53 -17z"/>
<path d="M3691 1339 c-110 -21 -170 -112 -118 -177 22 -28 87 -52 137 -52 119
0 176 85 119 177 -19 30 -66 65 -86 62 -4 -1 -28 -5 -52 -10z m48 -101 c10
-28 5 -44 -16 -52 -24 -9 -51 3 -58 25 -15 45 58 71 74 27z"/>
</g>
</svg>
